<?xml version="1.0" encoding="UTF-8" standalone="no"?>
<!DOCTYPE svg PUBLIC "-//W3C//DTD SVG 1.1//EN" "http://www.w3.org/Graphics/SVG/1.1/DTD/svg11.dtd">
<svg width="100%" height="100%" viewBox="0 0 512 512" version="1.1" xmlns="http://www.w3.org/2000/svg" xmlns:xlink="http://www.w3.org/1999/xlink" xml:space="preserve" xmlns:serif="http://www.serif.com/" style="fill-rule:evenodd;clip-rule:evenodd;stroke-linejoin:round;stroke-miterlimit:2;">
    <g transform="matrix(1,0,0,1,-1245,-7.10543e-15)">
        <g id="Layer1">
        </g>
        <g id="Artboard2" transform="matrix(1.03434,0,0,1.14541,-42.7576,45.8166)">
            <rect x="1245" y="-40" width="495" height="447" style="fill:none;"/>
            <clipPath id="_clip1">
                <rect x="1245" y="-40" width="495" height="447"/>
            </clipPath>
            <g clip-path="url(#_clip1)">
                <g transform="matrix(0.670732,0,0,0.605691,1148.08,-120.557)">
                    <rect x="447" y="133" width="133" height="738" style="fill:white;"/>
                    <g transform="matrix(0.707107,0.707107,-0.707107,0.707107,505.368,-216.067)">
                        <rect x="447" y="133" width="133" height="738" style="fill:white;"/>
                    </g>
                    <g transform="matrix(0,1,-1,0,1015.5,-11.5)">
                        <rect x="447" y="133" width="133" height="738" style="fill:white;"/>
                    </g>
                    <g transform="matrix(-0.707107,0.707107,-0.707107,-0.707107,1231.57,493.868)">
                        <rect x="447" y="133" width="133" height="738" style="fill:white;"/>
                    </g>
                </g>
            </g>
        </g>
    </g>
</svg>
